<?xml version="1.0" standalone="no"?>
<!DOCTYPE svg PUBLIC "-//W3C//DTD SVG 20010904//EN"
 "http://www.w3.org/TR/2001/REC-SVG-20010904/DTD/svg10.dtd">
<svg version="1.0" xmlns="http://www.w3.org/2000/svg"
 width="200.000000pt" height="169.000000pt" viewBox="0 0 200.000000 169.000000"
 preserveAspectRatio="xMidYMid meet">
<metadata>
Created by potrace 1.16, written by Peter Selinger 2001-2019
</metadata>
<g transform="translate(0.000000,169.000000) scale(0.100000,-0.100000)"
fill="#000000" stroke="none">
<path d="M515 1083 l-105 -178 111 -3 c60 -1 157 -1 215 0 l105 3 -106 178
c-58 97 -108 177 -110 177 -3 0 -52 -80 -110 -177z"/>
<path d="M115 1241 c-2 -4 6 -23 19 -42 12 -19 60 -98 105 -176 46 -79 85
-143 87 -143 5 0 201 330 209 352 7 17 -7 18 -204 17 -116 -1 -213 -4 -216 -8z"/>
<path d="M850 1075 l0 -175 135 0 135 0 0 85 0 85 -50 0 -50 0 0 90 0 90 -85
0 -85 0 0 -175z"/>
<path d="M1154 1236 c-3 -8 -4 -64 -2 -125 3 -105 4 -111 34 -148 78 -98 200
-98 278 0 30 38 31 42 34 162 l4 123 -171 2 c-144 1 -172 -2 -177 -14z"/>
<path d="M1530 1075 l0 -175 145 0 145 0 0 55 0 55 -34 0 c-19 0 -38 5 -41 10
-4 6 10 10 34 10 l41 0 0 40 c0 39 -1 40 -35 40 -19 0 -35 5 -35 10 0 6 16 10
35 10 l35 0 0 58 0 58 -145 2 -145 1 0 -174z"/>
<path d="M1230 483 c-14 -9 -28 -21 -31 -26 -4 -5 -11 -7 -15 -4 -5 3 -17 -1
-27 -8 -15 -11 -16 -13 -2 -19 20 -7 19 -52 -1 -60 -23 -9 -24 -8 -35 24 -6
17 -15 30 -21 30 -6 0 -7 -8 -3 -17 4 -10 10 -26 13 -37 4 -16 2 -17 -16 -7
-15 8 -21 8 -25 -2 -2 -7 -9 -2 -16 12 -13 23 -12 23 14 17 20 -5 26 -3 23 6
-5 14 -88 20 -88 6 0 -15 -19 -8 -24 10 -4 9 -29 30 -57 45 -41 22 -54 26 -65
16 -12 -10 -18 -8 -30 7 -14 18 -15 18 -9 -4 6 -21 5 -23 -13 -13 -28 15 -33
14 -30 -5 2 -10 -2 -19 -8 -21 -6 -2 -10 7 -10 19 1 30 -29 36 -31 6 -2 -17 0
-19 7 -8 5 8 12 11 16 7 4 -4 -5 -19 -20 -33 -14 -15 -29 -24 -33 -21 -3 4 -1
7 5 7 7 0 12 14 12 30 0 30 -21 42 -35 20 -3 -6 -1 -10 6 -10 8 0 9 -10 5 -31
-4 -23 1 -44 21 -80 14 -27 30 -49 35 -49 10 0 -8 36 -23 46 -17 10 42 41 69
36 12 -2 29 -17 38 -33 14 -28 14 -28 -10 -20 -15 6 -27 6 -35 -2 -8 -8 -11
-5 -11 11 0 13 -6 22 -16 22 -11 0 -14 -6 -8 -22 4 -13 11 -26 16 -29 6 -4 6
-9 -1 -14 -16 -10 0 -28 54 -59 50 -30 122 -48 131 -34 4 5 21 7 41 3 31 -6
34 -4 29 13 -4 13 -1 22 10 26 21 8 37 -2 30 -20 -7 -18 -3 -18 44 6 26 13 40
27 40 40 0 10 4 22 10 25 6 3 7 -1 4 -9 -9 -24 6 -19 32 11 27 32 25 39 -8 24
-20 -10 -21 -10 -4 1 46 30 64 57 76 112 15 71 11 81 -20 59z"/>
</g>
</svg>
